<?xml version="1.0" encoding="UTF-8" standalone="no"?>
<!-- Created with Inkscape (http://www.inkscape.org/) -->

<svg
   version="1.1"
   id="svg9"
   width="423.94098"
   height="573.85345"
   viewBox="0 0 423.94098 573.85345"
   sodipodi:docname="bunny_bw_svg.svg"
   inkscape:version="1.2.1 (9c6d41e410, 2022-07-14)"
   xmlns:inkscape="http://www.inkscape.org/namespaces/inkscape"
   xmlns:sodipodi="http://sodipodi.sourceforge.net/DTD/sodipodi-0.dtd"
   xmlns="http://www.w3.org/2000/svg"
   xmlns:svg="http://www.w3.org/2000/svg">
  <defs
     id="defs13" />
  <sodipodi:namedview
     id="namedview11"
     pagecolor="#ffffff"
     bordercolor="#000000"
     borderopacity="0.25"
     inkscape:showpageshadow="false"
     inkscape:pageopacity="0.0"
     inkscape:pagecheckerboard="true"
     inkscape:deskcolor="#d1d1d1"
     showgrid="false"
     borderlayer="true"
     shape-rendering="auto"
     inkscape:zoom="1.1514286"
     inkscape:cx="182.81638"
     inkscape:cy="274.44169"
     inkscape:window-width="2560"
     inkscape:window-height="1009"
     inkscape:window-x="-8"
     inkscape:window-y="-8"
     inkscape:window-maximized="1"
     inkscape:current-layer="g15" />
  <g
     inkscape:groupmode="layer"
     inkscape:label="Image"
     id="g15"
     transform="translate(-16.742246,-14.350495)">
    <path
       style="fill:#ffffff"
       d="m 368.01465,308.51042 38.07498,33.16208 20.87983,45.44433 4.9129,45.44433 -11.66814,58.95481 -23.33628,31.31974 -38.07498,29.47742 -54.04191,22.10805 -69.39472,6.14113 c 0,0 -75.53585,-3.07057 -77.9923,-3.07057 -2.45645,0 -55.88425,-20.26571 -55.88425,-20.26571 l -41.14554,-31.31974 -24.564504,-50.35724 -9.211689,-35.00441 6.141126,-52.19957 15.352815,-31.93387 39.917318,-36.84675 3.684676,-12.28224 -12.282252,-47.9008 -7.369351,-62.63948 3.070563,-47.90078 0.614113,-46.67256 8.597576,-42.987876 9.211689,-19.03749 15.96693,-15.352815 14.12459,-2.45645 18.42338,1.228225 21.49394,11.054026 17.19515,30.70563 12.28225,68.16649 3.07057,74.92174 0.61411,59.56892 6.14112,16.58104 34.39031,1.22822 12.28225,-9.21168 3.07056,-62.02538 1.84234,-49.129 6.14113,-60.79714 12.89636,-49.129012 12.28225,-15.966927 24.56451,-12.896364 26.40684,6.141126 17.19515,11.054026 15.35282,22.108053 11.66814,49.128998 -1.22823,95.18747 -6.14113,57.72658 -7.98346,29.4774 z"
       id="path360" />
    <path
       style="fill:#ffb83f;fill-opacity:1"
       d="m 270.98486,400.32026 30.39858,-11.97519 31.01268,-3.07057 32.85502,4.9129 20.57278,9.82581 8.90463,9.8258 2.14939,17.19515 -4.60584,24.87156 -13.20342,23.95039 -15.65987,9.8258 -27.02096,7.0623 -37.76792,0.92117 -27.94212,-9.82581 -10.13286,-9.51874 -8.90463,-22.41511 -6.14113,-21.18688 1.53528,-15.35282 11.9752,-10.43991 z"
       id="path6604" />
    <path
       style="fill:#ffb83f;fill-opacity:1"
       d="m 123.59784,386.50272 32.54797,2.45646 35.00442,14.73869 11.66813,12.89637 0.30706,17.50221 -11.05403,31.6268 -19.34454,21.49394 -13.81754,6.44819 c 0,0 -52.19957,-0.61412 -56.49836,-0.61412 -4.298786,0 -16.581038,-9.21169 -16.581038,-9.21169 l -15.659871,-18.73043 -9.518745,-27.63508 0.307056,-26.71389 10.439914,-13.51047 30.091514,-9.51875 z"
       id="path519" />
    <path
       style="fill:#000000"
       d="m 175.19244,587.21345 c -9.5001,-0.85448 -20.47194,-2.8574 -37.5,-6.84563 -11.07743,-2.59451 -14.65742,-3.71927 -22.5,-7.06905 -1.1,-0.46984 -3.575,-1.42379 -5.5,-2.11987 -1.925,-0.69609 -4.175,-1.82883 -5,-2.5172 -0.825,-0.68837 -4.55401,-2.83952 -8.286692,-4.78034 -3.73268,-1.94081 -8.65039,-5.01599 -10.92824,-6.83372 -4.34098,-3.46412 -9.13497,-6.55327 -14.44488,-9.30798 -3.31727,-1.72097 -11.8457,-10.50189 -19.17706,-19.74485 -4.64586,-5.85721 -5.57995,-7.35492 -9.68164,-15.52347 -1.4558,-2.89923 -4.87089,-9.30261 -7.58909,-14.22973 -5.3066,-9.61899 -9.09067,-19.17116 -13.27049,-33.49894 -3.99706,-13.70129 -4.44553,-17.45518 -4.56025,-38.17113 -0.0815,-14.72299 0.24366,-20.17554 1.40154,-23.5 0.82923,-2.38088 1.51424,-5.76481 1.52225,-7.51985 0.008,-1.75504 0.46455,-3.4691 1.01455,-3.80902 0.55,-0.33992 1,-1.62648 1,-2.85902 0,-1.23254 0.42679,-2.66848 0.94843,-3.19098 0.52164,-0.5225 1.59313,-3.425 2.38109,-6.45 1.99723,-7.66736 3.81018,-11.72168 9.25846,-20.7048 9.69634,-15.98734 13.2722,-19.88433 27.57781,-30.0545 4.44125,-3.15739 9.63991,-6.8657 11.55257,-8.2407 7.15718,-5.14525 7.15315,-5.08148 1.83649,-29.10654 -6.54596,-29.58004 -6.31449,-28.26193 -8.58626,-48.89346 -2.62198,-23.81193 -3.95273,-94.94206 -1.95506,-104.5 0.68972,-3.3 1.61164,-14.1 2.04871,-24 0.99595,-22.559127 2.41365,-35.024497 4.95317,-43.551737 1.09152,-3.66514 1.98459,-7.46176 1.98459,-8.43693 0,-0.97518 2.12193,-6.55166 4.71539,-12.39219 4.1654,-9.38054 5.59867,-11.49393 12.28815,-18.11914 8.12171,-8.043681 17.868652,-14.435421 24.596282,-16.129451 2.29011,-0.57666 9.27951,-0.89594 15.53201,-0.70951 11.04437,0.3293 11.61027,0.4589 19.86817,4.55012 22.51744,11.155841 33.20514,27.340681 40.47224,61.288841 0.88302,4.125 2.07294,11.1 2.64428,15.5 0.57133,4.399997 1.43714,10.474997 1.92402,13.499997 4.99146,31.01199 7.01399,61.74089 6.81222,103.5 -0.11941,24.71529 1.1151,52.83486 2.63413,60 0.39255,1.8516 1.26207,2.00531 11.71856,2.07162 6.212,0.0394 13.45683,0.22353 16.09962,0.40921 3.22688,0.22672 5.27764,-0.13497 6.24389,-1.10122 2.1364,-2.13639 3.59565,-23.62217 3.31977,-48.87961 -0.28934,-26.48932 1.5309,-73.2164 3.50592,-90 1.29767,-11.02755 3.38507,-23.43995 6.62508,-39.394947 3.16124,-15.56711 8.60691,-32.10536 15.51174,-47.10843 3.48005,-7.56158 5.23019,-9.99904 10.92882,-15.2208 9.70906,-8.896591 24.19459,-14.275821 38.44279,-14.275821 6.48788,0 19.25204,3.92386 24.62494,7.57 1.96944,1.336501 3.96197,2.430001 4.42786,2.430001 2.11928,0 12.90588,10.37057 19.74317,18.9817 12.94829,16.30755 15.76541,25.28798 20.88569,66.579377 1.58866,12.81141 1.64105,17.78842 0.58945,56 -0.6348,23.06641 -1.55206,46.66392 -2.03835,52.43892 -0.86572,10.28109 -3.72256,32.02977 -4.59748,35 -0.41422,1.40622 -1.23141,7.21445 -3.7284,26.5 -1.48064,11.43579 -1.34008,16.54827 0.55556,20.20724 1.00465,1.93917 5.55028,5.98358 11.49691,10.22923 12.85914,9.1809 17.02474,13.35476 28.507,28.56353 2.46724,3.26797 11.64825,24.17556 11.65431,26.53993 0.002,0.80304 0.82791,2.81152 1.83523,4.4633 1.67322,2.7437 2.30454,5.27563 3.86403,15.49677 0.2937,1.925 0.91627,3.97874 1.38348,4.56387 1.08484,1.35866 3.89256,25.04434 3.90427,32.93613 0.011,7.39226 -4.5386,32.06896 -7.00595,38 -0.45761,1.1 -1.57934,4.7 -2.49273,8 -4.17613,15.08794 -11.54452,31.03039 -17.67034,38.23204 -2.92695,3.44099 -7.79673,9.25667 -10.82173,12.92373 -10.45582,12.67509 -16.52761,18.66186 -23.5,23.17093 -3.85,2.48981 -8.7685,6.02236 -10.93,7.85011 -2.1615,1.82776 -4.44962,3.32319 -5.08471,3.32319 -0.63509,0 -4.39099,1.575 -8.34644,3.5 -3.95544,1.925 -7.61456,3.5 -8.13136,3.5 -0.5168,0 -2.6424,0.73737 -4.72356,1.63861 -2.08116,0.90123 -4.90893,2.07395 -6.28393,2.60603 -1.375,0.53208 -4.3,1.83644 -6.5,2.89858 -7.03197,3.39495 -24.74494,7.42654 -51.5,11.72172 -17.79742,2.85715 -79.95034,4.13407 -102.5,2.10584 z m 86.5,-15.99069 c 13.40772,-1.56889 27.39599,-4.70365 54.5,-12.2134 16.97384,-4.70297 28.39157,-9.43264 35.5,-14.7055 1.375,-1.01994 8.35,-5.75455 15.5,-10.52135 7.15,-4.7668 15.06307,-10.12964 17.5846,-11.91742 4.33071,-3.0705 10.20486,-9.11678 12.4154,-12.77923 0.55,-0.91124 2.9125,-4.45002 5.25,-7.86395 2.3375,-3.41393 4.24983,-6.49337 4.24961,-6.84319 -2.1e-4,-0.34983 1.30916,-3.33605 2.90972,-6.63605 3.31708,-6.83909 8.49861,-25.39672 10.19128,-36.5 1.65563,-10.8603 0.35921,-38.47346 -2.23211,-47.54326 -1.09318,-3.82621 -3.31817,-11.90674 -4.9444,-17.95674 -4.46919,-16.62647 -6.47897,-22.30904 -10.70931,-30.28018 -7.6173,-14.35311 -16.6331,-23.13385 -34.38083,-33.48446 -2.56633,-1.49669 -6.27883,-4.60544 -8.25,-6.90831 -3.34226,-3.90467 -3.58396,-4.64098 -3.58396,-10.91792 0,-6.84349 3.07798,-20.45453 7.44203,-32.90913 1.56603,-4.46931 2.48336,-10.01845 2.93626,-17.76214 0.36228,-6.19418 1.77537,-16.87429 3.1402,-23.73359 2.4359,-12.24222 2.48144,-13.35854 2.47749,-60.73785 -0.003,-37.69473 -0.3259,-50.23767 -1.47361,-57.26642 -1.37931,-8.44707 -5.16604,-20.632737 -12.58551,-40.499997 -1.74589,-4.675 -3.82504,-10.33896 -4.62034,-12.58658 -1.714,-4.84399 -4.70551,-8.11545 -12.81652,-14.01592 -7.60495,-5.53232 -12.79193,-7.29363 -23.78465,-8.07638 -8.73277,-0.62183 -8.82927,-0.60288 -16.34182,3.2103 -6.06113,3.07647 -8.67729,5.18962 -13.21535,10.67441 -5.89942,7.13016 -8.31873,12.20119 -10.63618,22.29417 -1.47169,6.40948 -5.87124,23.01117 -6.75767,25.5 -4.84316,13.598227 -7.41971,44.517427 -8.74983,104.999997 -0.59872,27.225 -1.55488,54.45 -2.1248,60.5 -0.93766,9.95379 -3.71005,22.61817 -5.80119,26.5 -0.68855,1.27818 -4.97783,1.5023 -29.00547,1.51554 -25.41354,0.014 -28.35116,-0.15433 -29.75459,-1.7051 -1.99554,-2.20505 -4.91962,-16.76531 -5.80066,-28.88404 -0.37692,-5.18452 -0.81874,-23.3764 -0.98183,-40.4264 -0.16848,-17.61441 -0.77628,-33.29481 -1.40761,-36.31461 -0.6111,-2.92304 -1.60078,-17.95079 -2.19929,-33.39502 -1.06968,-27.60228 -1.66805,-32.85762 -6.83901,-60.064857 -4.0197,-21.14984 -11.46769,-38.27221 -20.91806,-48.08907 -2.93325,-3.047 -7.48326,-6.21807 -12.18199,-8.49008 -7.13675,-3.45088 -7.97448,-3.62124 -17.29657,-3.51732 -11.29008,0.12586 -15.44187,1.53448 -23.10421,7.83877 -5.558492,4.57333 -10.362972,13.8259 -12.478942,24.03219 -0.68415,3.3 -2.10221,9.825 -3.15123,14.5 -1.04903,4.675 -2.86448,14.575 -4.03434,22 -2.03534,12.918147 -2.10015,15.698117 -1.50368,64.499997 0.61929,50.6688 1.27705,62.66479 4.27688,78 0.86071,4.4 1.92731,10.7 2.37022,14 2.34574,17.47751 3.92768,25.48795 5.92456,30 3.72536,8.41764 7.961822,22.7787 7.964902,27 0.002,2.2 -0.64612,5.125 -1.43939,6.5 -0.79328,1.375 -1.861482,3.4 -2.373782,4.5 -1.14611,2.4609 -6.30518,7.14321 -11.64744,10.57108 -2.20384,1.4141 -7.42531,5.6891 -11.60326,9.5 -4.17796,3.81091 -9.73176,8.72892 -12.34179,10.92892 -5.64439,4.75768 -11.18712,12.03704 -12.68848,16.664 -0.59535,1.8348 -2.38544,6.12015 -3.97796,9.52299 -1.59252,3.40284 -2.89549,7.05877 -2.89549,8.12427 0,1.06551 -0.70918,3.90636 -1.57596,6.31301 -1.91825,5.3261 -4.22726,21.68046 -5.06516,35.87573 -0.95287,16.14298 2.15656,30.58997 10.86914,50.5 1.68476,3.85 4.12267,8.67856 5.41758,10.73013 1.29492,2.05157 2.3544,4.33947 2.3544,5.08422 0,0.74474 1.8,3.92367 4,7.06427 2.2,3.14061 4,5.96416 4,6.27457 0,1.11678 11.63667,14.93151 18.08211,21.46657 7.27355,7.37469 19.069582,14.86159 31.930312,20.26606 2.46817,1.0372 6.06258,2.54977 7.98758,3.36128 1.925,0.8115 6.59796,3.00038 10.38436,4.86418 3.78639,1.8638 7.63389,3.38872 8.55,3.38872 0.9161,0 2.09314,0.40941 2.61564,0.9098 1.15702,1.10806 15.21103,3.97648 25.45,5.19435 4.125,0.49064 8.175,1.06573 9,1.27796 3.08475,0.79357 76.79742,0.44079 84,-0.40202 z m -23.5,-28.14219 c -1.65,-0.62458 -4.27218,-2.19375 -5.82707,-3.48704 -4.36642,-3.6318 -6.86124,-3.84141 -11.14239,-0.93615 -5.17318,3.51062 -9.63147,4.57318 -19.21544,4.57971 -9.22611,0.006 -12.59657,-0.95919 -16.5651,-4.74513 -2.02067,-1.9277 -2.75,-3.59359 -2.75,-6.28139 0,-7.06121 6.41564,-9.27483 11.5,-3.9679 2.68604,2.80362 3.38555,3.615 10.26709,3 2.52554,-0.22571 4.99436,-0.62155 7.31615,-1.45852 3.14834,-1.39704 4.2191,-2.9326 5.95883,-4.42355 8.38399,-7.18509 9.53174,-8.16699 14.52999,-3.02877 4.99058,5.13034 12.44046,8.91084 17.55976,8.91084 4.41309,0 9.67989,-2.32279 11.67488,-5.14891 1.47691,-2.0922 6.16993,-2.47446 7.9933,-0.65109 0.66,0.66 1.2,3.32936 1.2,5.93191 0,5.17916 -1.26014,6.56072 -9.40466,10.31083 -4.7423,2.18356 -18.77338,3.03116 -23.09534,1.39516 z M 98.415138,497.7664 c -6.48859,-1.15729 -8.80843,-2.13799 -14,-5.9184 -7.45898,-5.43149 -10.15361,-8.19895 -15.68151,-16.10533 -9.2179,-13.18406 -14.97097,-33.30014 -15.01466,-52.5 -0.0176,-7.74264 3.55809,-21.92276 6.26261,-24.83548 7.20738,-7.76222 22.69381,-14.92293 36.21086,-16.74341 2.75,-0.37037 5.545612,-1.10772 6.212472,-1.63855 0.74087,-0.58975 10.6594,-0.78562 25.5,-0.50358 24.04037,0.45687 24.36894,0.4922 32.28753,3.47097 22.13883,8.32808 27.67112,10.97556 35,16.74926 11.08373,8.73179 15.7861,11.17338 23.79085,12.35284 15.3663,2.26416 21.25966,0.90488 29.20915,-6.73697 5.05811,-4.86236 15.186,-11.11508 18.00375,-11.11508 0.84372,0 4.06388,-1.35 7.15591,-3 3.09203,-1.65 6.71311,-3 8.04685,-3 1.33374,0 3.40789,-0.52879 4.60923,-1.17509 1.20134,-0.64629 3.75926,-1.49835 5.68426,-1.89346 1.925,-0.3951 7.98968,-1.89131 13.47707,-3.32491 8.28064,-2.16334 12.19138,-2.60701 23,-2.60928 23.03523,-0.005 33.24317,1.51808 47.53198,7.09137 14.1893,5.53448 20.11378,9.99774 24.42849,18.40341 2.37829,4.63326 2.56246,5.96598 2.56246,18.54324 0,16.31339 -2.26832,25.55643 -10.24864,41.76161 -4.29964,8.73103 -5.97774,11.05475 -11.03494,15.28045 -7.90139,6.60224 -12.43474,9.09626 -23.21642,12.77248 -11.71668,3.99503 -21.82827,5.15799 -44.47377,5.11505 -19.41287,-0.0368 -27.0101,-1.05339 -35.02623,-4.68686 -2.475,-1.12184 -5.61442,-2.381 -6.97648,-2.79813 -6.95447,-2.12981 -15.53662,-11.62941 -21.90683,-24.24871 -4.72722,-9.36458 -10.00295,-24.41205 -10.73107,-30.60727 -0.94554,-8.04505 -2.78472,-9.1239 -15.5541,-9.1239 -11.70275,0 -12.46206,0.51583 -13.89966,9.4425 -1.80401,11.20184 -9.66134,29.06395 -16.59514,37.7258 -1.8352,2.29256 -3.33672,4.59775 -3.33672,5.12264 0,0.52489 -1.98025,2.69915 -4.40055,4.8317 -14.33012,12.62638 -20.36767,14.26205 -54.86878,14.86487 -17.8751,0.31232 -26.27061,0.0595 -32.007972,-0.96378 z m 67.792502,-14.23642 c 6.52875,-4.20776 7.68567,-5.39985 13.86581,-14.28731 11.33827,-16.30522 15.61252,-26.92611 16.29875,-40.5 0.55456,-10.96956 -0.69819,-13.5219 -9.37512,-19.10072 -6.58834,-4.23598 -11.93858,-6.37802 -31.84722,-12.75051 -12.52634,-4.00951 -15.44166,-4.56887 -27,-5.18046 -8.37346,-0.44306 -15.1439,-0.2823 -19.13791,0.45444 -14.612202,2.69536 -31.278282,9.99005 -37.227842,16.2945 -3.97883,4.21617 -4.04205,4.39993 -4.06667,11.82076 -0.0138,4.1459 0.62031,12.74001 1.40903,19.09802 1.89864,15.30525 6.5971,25.36868 16.9771,36.36247 3.89888,4.12943 7.69586,7.50658 8.43774,7.50478 0.74188,-0.002 2.76688,0.64843 4.5,1.44495 4.829892,2.21978 7.208372,2.36674 35.666332,2.20369 l 26.51521,-0.15192 z m -56.1754,-19.11635 c -6.17534,-4.88567 -9.32001,-9.53689 -13.768282,-20.36435 -4.34366,-10.57286 -4.61765,-16.19227 -1.16962,-23.98887 3.10471,-7.02029 6.543582,-11.0308 13.482362,-15.72348 7.46187,-5.04645 11.396,-6.20225 21.58631,-6.3418 7.16266,-0.0981 8.99364,0.21463 11.31792,1.93305 1.52508,1.12753 4.60167,2.98305 6.83687,4.12336 9.69244,4.94472 14.36993,13.87755 15.13704,28.90795 0.46992,9.2073 0.2899,10.88773 -1.56343,14.5943 -2.16794,4.33574 -7.13393,9.5575 -13.19897,13.87876 -5.53703,3.94506 -16.34431,6.81012 -25.68842,6.81012 -7.91749,0 -8.25964,-0.101 -12.97178,-3.82904 z m 24.73934,-12.85272 c 7.24712,-2.01487 10.21581,-5.08513 12.49384,-12.92128 1.47702,-5.08077 1.46508,-5.86775 -0.1677,-11.05879 -0.96683,-3.07382 -2.69104,-6.47156 -3.83158,-7.55054 -6.27342,-5.93486 -16.89067,-7.81802 -23.95002,-4.24797 -8.47481,4.28589 -11.42954,18.43701 -6.08782,29.15646 4.06494,8.15728 9.74344,9.90277 21.54328,6.62212 z m 203.49679,34.15107 c 18.24083,-2.55593 23.37329,-4.77344 32.745,-14.14763 3.57952,-3.58048 10.72534,-14.24529 14.13588,-21.09715 3.03911,-6.10566 5.10592,-23.567 3.97761,-33.60454 -0.57153,-5.08432 -1.14078,-6.30221 -4.2067,-9 -4.34479,-3.8231 -7.65056,-5.86761 -12.22772,-7.56245 -9.86805,-3.65395 -11.74793,-4.25532 -15.9489,-5.10204 -2.50311,-0.5045 -7.70093,-1.60088 -11.55073,-2.43639 -15.19312,-3.29732 -38.35724,-1.06685 -52.00037,5.00711 -1.65,0.73459 -7.275,2.68177 -12.5,4.32707 -10.98368,3.45865 -12.66091,4.2743 -19.70236,9.58146 -6.85375,5.16568 -7.61747,7.29383 -7.10478,19.79774 0.34807,8.48902 0.88747,11.26863 3.11407,16.04715 1.48119,3.17879 2.69307,6.06491 2.69307,6.41358 0,0.34867 2.28609,5.17283 5.08021,10.72036 3.84349,7.63099 6.01354,10.73868 8.91415,12.76579 4.12385,2.88199 17.10511,7.34522 25.39828,8.73248 8.40528,1.40601 27.53247,1.18998 39.18329,-0.44254 z m -30.70912,-18.33012 c -4.87081,-2.27965 -6.38418,-3.63402 -9.92796,-8.8849 -7.57155,-11.21891 -8.43148,-13.84441 -8.43531,-25.75429 -0.003,-10.47731 0.13901,-11.23119 2.99646,-15.86547 4.90891,-7.96139 10.36774,-13.42209 16.35849,-16.36406 5.17495,-2.54135 6.55123,-2.76326 16.64151,-2.68334 13.32969,0.10558 18.11777,1.95897 24.44447,9.46206 6.28052,7.44833 8.35353,14.3656 7.67443,25.60816 -0.763,12.63143 -3.97667,20.49938 -11.14024,27.27439 -6.18854,5.85286 -8.12941,6.75218 -16.1354,7.47649 -16.23999,1.46924 -18.82856,1.43826 -22.47645,-0.26904 z m 24.65191,-16.62278 c 4.70611,-2.28539 5.19473,-2.88961 7.84454,-9.70049 3.2323,-8.30806 3.10357,-11.29753 -0.83291,-19.34341 -2.05975,-4.20998 -3.50522,-5.69434 -7.62812,-7.83338 -5.82574,-3.0225 -8.90236,-3.25601 -14.92114,-1.13246 -4.92771,1.7386 -6.22871,3.11981 -9.41297,9.99333 -3.41793,7.37791 -4.11168,14.34743 -2.04693,20.56379 1.39099,4.18789 2.54634,5.66509 6.33989,8.10596 4.16828,2.68199 5.19692,2.92389 10.13892,2.38433 3.025,-0.33026 7.75842,-1.69722 10.51872,-3.03767 z M 154.19244,350.94174 c -6.31657,-2.7946 -7.87869,-3.0779 -16,-2.90173 -4.95,0.10738 -10.87815,-0.30196 -13.17366,-0.90964 -8.90683,-2.35786 -7.48474,-11.53253 2.35653,-15.20334 13.8607,-5.17005 38.34794,-1.66718 46.1109,6.59611 2.76645,2.94476 4.16128,11.86384 2.22097,14.20177 -2.27655,2.74308 -13.36061,1.82442 -21.51474,-1.78317 z m 128.13681,1.22988 c -2.50202,-1.96809 -2.79204,-2.73495 -2.33185,-6.16591 0.61605,-4.59301 2.59231,-7.03249 8.50351,-10.49668 9.7241,-5.6987 30.35448,-8.25654 37.49119,-4.64831 6.57969,3.32662 9.70034,6.34297 9.70034,9.37614 0,4.86998 -2.88961,6.00581 -15.27911,6.00581 -10.09507,0 -11.40818,0.23764 -19.25006,3.48379 -11.63083,4.8146 -15.22805,5.28162 -18.83402,2.44516 z"
       id="path123"
       sodipodi:nodetypes="sssssssssssssssssssssssssssssssssssssssssssssssssssssssssssssssssssssssssssssssssssssssssssssssscsssssssssssssssssssssssssssssscssssssssssssssssssssssssssscsssscsssssssssssssssssssssssssscssssssssssssssssssssssssssssscsscsssssssssssssssssssssssssssssssssssssssscsssssssssssssssssssssssssssssssss" />
  </g>
</svg>
